<?xml version="1.0" encoding="UTF-8" standalone="no"?>
<!-- Created with Inkscape (http://www.inkscape.org/) -->

<svg
   xmlns:dc="http://purl.org/dc/elements/1.1/"
   xmlns:cc="http://creativecommons.org/ns#"
   xmlns:rdf="http://www.w3.org/1999/02/22-rdf-syntax-ns#"
   xmlns:svg="http://www.w3.org/2000/svg"
   xmlns="http://www.w3.org/2000/svg"
   xmlns:sodipodi="http://sodipodi.sourceforge.net/DTD/sodipodi-0.dtd"
   xmlns:inkscape="http://www.inkscape.org/namespaces/inkscape"
   width="210mm"
   height="297mm"
   viewBox="0 0 210 297"
   version="1.1"
   id="svg4059"
   sodipodi:docname="checkedOverflow.svg"
   inkscape:version="0.92.4 (5da689c313, 2019-01-14)"
   inkscape:export-filename="C:\code\git\TodoApp\images\checkedOverflow.png"
   inkscape:export-xdpi="220.33"
   inkscape:export-ydpi="220.33">
  <defs
     id="defs4053">
    <clipPath
       clipPathUnits="userSpaceOnUse"
       id="clipPath4155">
      <rect
         style="fill:#0aa06e;fill-opacity:1;stroke-width:0.26458332"
         id="rect4157"
         width="200"
         height="200"
         x="7.3886676"
         y="24.196575" />
    </clipPath>
    <clipPath
       clipPathUnits="userSpaceOnUse"
       id="clipPath4159">
      <rect
         style="fill:#0aa06e;fill-opacity:1;stroke-width:0.26458332"
         id="rect4161"
         width="200"
         height="200"
         x="7.3886676"
         y="24.196575" />
    </clipPath>
  </defs>
  <sodipodi:namedview
     id="base"
     pagecolor="#ffffff"
     bordercolor="#666666"
     borderopacity="1.0"
     inkscape:pageopacity="0.0"
     inkscape:pageshadow="2"
     inkscape:zoom="0.35"
     inkscape:cx="400"
     inkscape:cy="560"
     inkscape:document-units="mm"
     inkscape:current-layer="layer1"
     showgrid="false"
     inkscape:window-width="1920"
     inkscape:window-height="1027"
     inkscape:window-x="-8"
     inkscape:window-y="-8"
     inkscape:window-maximized="1" />
  <metadata
     id="metadata4056">
    <rdf:RDF>
      <cc:Work
         rdf:about="">
        <dc:format>image/svg+xml</dc:format>
        <dc:type
           rdf:resource="http://purl.org/dc/dcmitype/StillImage" />
      </cc:Work>
    </rdf:RDF>
  </metadata>
  <g
     inkscape:label="Layer 1"
     inkscape:groupmode="layer"
     id="layer1">
    <g
       id="g20"
       transform="matrix(0.26458333,0,0,0.26458333,47.190044,58.824433)" />
    <g
       id="g22"
       transform="matrix(0.26458333,0,0,0.26458333,47.190044,58.824433)" />
    <g
       id="g24"
       transform="matrix(0.26458333,0,0,0.26458333,47.190044,58.824433)" />
    <g
       id="g26"
       transform="matrix(0.26458333,0,0,0.26458333,47.190044,58.824433)" />
    <g
       id="g28"
       transform="matrix(0.26458333,0,0,0.26458333,47.190044,58.824433)" />
    <g
       id="g30"
       transform="matrix(0.26458333,0,0,0.26458333,47.190044,58.824433)" />
    <g
       id="g32"
       transform="matrix(0.26458333,0,0,0.26458333,47.190044,58.824433)" />
    <g
       id="g34"
       transform="matrix(0.26458333,0,0,0.26458333,47.190044,58.824433)" />
    <g
       id="g36"
       transform="matrix(0.26458333,0,0,0.26458333,47.190044,58.824433)" />
    <g
       id="g38"
       transform="matrix(0.26458333,0,0,0.26458333,47.190044,58.824433)" />
    <g
       id="g40"
       transform="matrix(0.26458333,0,0,0.26458333,47.190044,58.824433)" />
    <g
       id="g42"
       transform="matrix(0.26458333,0,0,0.26458333,47.190044,58.824433)" />
    <g
       id="g44"
       transform="matrix(0.26458333,0,0,0.26458333,47.190044,58.824433)" />
    <g
       id="g46"
       transform="matrix(0.26458333,0,0,0.26458333,47.190044,58.824433)" />
    <g
       id="g48"
       transform="matrix(0.26458333,0,0,0.26458333,47.190044,58.824433)" />
    <rect
       style="fill:#32ba7c;fill-opacity:1;stroke-width:0.29478452"
       id="rect79"
       width="200"
       height="200"
       x="7.3886676"
       y="24.196575"
       clip-path="url(#clipPath4159)" />
    <g
       id="g4139"
       clip-path="url(#clipPath4155)">
      <rect
         transform="rotate(-45)"
         y="176.01308"
         x="-46.09399"
         height="166.77618"
         width="82"
         id="rect3992"
         style="fill:#0aa06e;fill-opacity:1;stroke-width:0.2809231" />
      <g
         transform="matrix(0.26458333,0,0,0.26458333,40.290335,56.886576)"
         id="g18">
        <path
           id="path14"
           d="m 260,310.4 c 11.2,11.2 11.2,30.4 0,41.6 l -23.2,23.2 c -11.2,11.2 -30.4,11.2 -41.6,0 L 93.6,272.8 c -11.2,-11.2 -11.2,-30.4 0,-41.6 L 116.8,208 c 11.2,-11.2 30.4,-11.2 41.6,0 z"
           style="fill:#ffffff"
           inkscape:connector-curvature="0" />
        <path
           id="path16"
           d="m 348.8,133.6 c 11.2,-11.2 30.4,-11.2 41.6,0 l 23.2,23.2 c 11.2,11.2 11.2,30.4 0,41.6 l -176,175.2 c -11.2,11.2 -30.4,11.2 -41.6,0 l -23.2,-23.2 c -11.2,-11.2 -11.2,-30.4 0,-41.6 z"
           style="fill:#ffffff"
           inkscape:connector-curvature="0" />
      </g>
    </g>
  </g>
</svg>
